# xmcd
# 
# Track frame offsets:
#     182
#     12692
#     25952
#     36092
#     49430
#     59455
#     68442
#     83087
#     97327
#     111367
#     122897
#     129787
#     142467
#     157945
#     167060
#     176882
#     185917
#     197712
# 
# Disc length: 2754
# 
# Revision: 1
# Processed by: cddbd v1.5.2PL0 Copyright (c) Steve Scherf et al.
# Submitted via: BonkEnc v1.0.8
# 
DISCID=110ac012
DTITLE=Frank Sinatra - Portrait fo Frank Sinatra
DYEAR=1996
DGENRE=Blues
TTITLE0=Come Fly With Me
TTITLE1=I Get A Kick Out Of You
TTITLE2=All The Way
TTITLE3=You Make Me Feel So Young
TTITLE4=Love Me Or Leave Me
TTITLE5=On The Sunny Side Of The Street
TTITLE6=Stardust
TTITLE7=Begin The Beguine
TTITLE8=The Lady Is A Tramp
TTITLE9=Night And Day
TTITLE10=Somebody Loves Me
TTITLE11=Just One Of Those Things
TTITLE12=You Are Love
TTITLE13=They Didn't Believe Me
TTITLE14=Moonlight In Vermont
TTITLE15=I've Got My Love To Keep Me Warm
TTITLE16=My Funny Valentine
TTITLE17=I've Got You Under My Skin
EXTD=
EXTT0=
EXTT1=
EXTT2=
EXTT3=
EXTT4=
EXTT5=
EXTT6=
EXTT7=
EXTT8=
EXTT9=
EXTT10=
EXTT11=
EXTT12=
EXTT13=
EXTT14=
EXTT15=
EXTT16=
EXTT17=
PLAYORDER=
